Coordinates
version=1
nRows=24
nColumns=24
inDegrees=yes

Units are S.I. units (second, meters, Newtons, ...)
Angles are in degrees.

endheader
time	pelvis_tilt	pelvis_list	pelvis_rotation	pelvis_tx	pelvis_ty	pelvis_tz	hip_flexion_r	hip_adduction_r	hip_rotation_r	knee_angle_r	ankle_angle_r	subtalar_angle_r	mtp_angle_r	hip_flexion_l	hip_adduction_l	hip_rotation_l	knee_angle_l	ankle_angle_l	subtalar_angle_l	mtp_angle_l	lumbar_extension	lumbar_bending	lumbar_rotation
      4.48000000	    -17.43869293	     -3.67460552	     -2.39005076	     -1.59664975	     -0.01064767	     -0.33897718	     22.70861270	      9.90666440	     -0.63259506	    -17.65423052	      5.50326268	    -13.11770836	      1.36942466	     34.44911383	     -8.25227813	     -5.57572997	    -61.52826473	     -9.14151603	     -8.81739247	     19.64634919	     23.44469727	      1.53032574	    -12.36186931
      4.48500000	    -17.43496313	     -3.26216510	     -2.73685617	     -1.59027592	     -0.00973506	     -0.33837771	     21.89469730	      9.61549841	     -0.18917135	    -17.04503904	      5.65644969	    -12.82179754	      1.30767605	     35.04418924	     -8.05530385	     -6.11907211	    -60.88309451	     -8.50412787	     -8.83623736	     19.70966711	     23.41692647	      1.28999277	    -11.82971156
      4.49000000	    -17.42100101	     -2.86457509	     -3.08938116	     -1.58392115	     -0.00890529	     -0.33779636	     21.08002707	      9.32524938	      0.24155797	    -16.44108399	      5.81695662	    -12.50712119	      1.25329125	     35.61160299	     -7.88663260	     -6.67389915	    -60.17540707	     -7.89911139	     -8.82975362	     19.77279377	     23.37654722	      1.06851403	    -11.30070106
      4.49500000	    -17.40283600	     -2.48453185	     -3.43564285	     -1.57757987	     -0.00816617	     -0.33724563	     20.27130296	      9.03451462	      0.64280777	    -15.84248374	      5.97979415	    -12.17954640	      1.20924105	     36.16021448	     -7.73968984	     -7.22368614	    -59.40768309	     -7.32690976	     -8.78813302	     19.83633115	     23.33035697	      0.86243464	    -10.79230400
      4.50000000	    -17.37969630	     -2.12282600	     -3.77854748	     -1.57126024	     -0.00751737	     -0.33672701	     19.46859896	      8.74543774	      1.01761311	    -15.25086243	      6.14798497	    -11.83542770	      1.18156428	     36.68827343	     -7.61684544	     -7.77181115	    -58.58161089	     -6.78758838	     -8.70986455	     19.90118136	     23.27635491	      0.67311861	    -10.30104265
      4.50500000	    -17.35020729	     -1.78136104	     -4.11935557	     -1.56495358	     -0.00695893	     -0.33623741	     18.66912358	      8.46104415	      1.36456639	    -14.66582595	      6.31856356	    -11.47697562	      1.17425144	     37.19243611	     -7.51982958	     -8.31871436	    -57.69866371	     -6.28049186	     -8.59695714	     19.96802148	     23.21230669	      0.50283631	     -9.82481895
      4.51000000	    -17.32799549	     -1.46001535	     -4.44312465	     -1.55865800	     -0.00650475	     -0.33580030	     17.88885480	      8.17781986	      1.67202215	    -14.08997285	      6.49264850	    -11.11384619	      1.19453968	     37.68990508	     -7.43965185	     -8.85345953	    -56.76041345	     -5.80148888	     -8.42955629	     20.03644127	     23.15467845	      0.35107453	     -9.37806522
      4.51500000	    -17.28213219	     -1.16102487	     -4.78067301	     -1.55240204	     -0.00612407	     -0.33537479	     17.09182278	      7.90705548	      1.97216987	    -13.51729552	      6.66742317	    -10.72953933	      1.24682150	     38.14162040	     -7.39495340	     -9.40092225	    -55.76859516	     -5.35108507	     -8.24196205	     20.10952512	     23.06204437	      0.21994984	     -8.92911932
      4.52000000	    -17.26213068	     -0.88349585	     -5.08776432	     -1.54614679	     -0.00586831	     -0.33500235	     16.33181456	      7.64055726	      2.22290780	    -12.95279047	      6.83765811	    -10.36458409	      1.31999088	     38.60843813	     -7.35891664	     -9.91674056	    -54.72664697	     -4.92024786	     -7.98103173	     20.18558903	     22.99566373	      0.09933697	     -8.52588563
      4.52500000	    -17.22791219	     -0.62164331	     -5.40453349	     -1.53989325	     -0.00568550	     -0.33465188	     15.56628886	      7.38102701	      2.46314377	    -12.40110169	      7.01588894	     -9.99197816	      1.42243237	     39.03047469	     -7.34959959	    -10.45000788	    -53.62337991	     -4.51112979	     -7.67074780	     20.26883806	     22.91371156	      0.00236466	     -8.11497492
      4.53000000	    -17.23644438	     -0.39144478	     -5.66558610	     -1.53367979	     -0.00568192	     -0.33440807	     14.84506939	      7.13240483	      2.70597721	    -11.84107180	      7.22502139	     -9.64262300	      1.52243323	     39.50572588	     -7.33517153	    -10.91055711	    -52.49575512	     -4.11978433	     -7.30580910	     20.34994999	     22.86449098	     -0.08527998	     -7.80736839
      4.53500000	    -17.13227869	     -0.17411234	     -6.02000217	     -1.52748362	     -0.00558861	     -0.33408704	     14.02791795	      6.90109600	      2.92211468	    -11.31533309	      7.37054184	     -9.25480424	      1.70244891	     39.79316730	     -7.39939967	    -11.50398655	    -51.27551495	     -3.74635757	     -6.95645518	     20.45693972	     22.69048894	     -0.12759419	     -7.35846239
      4.54000000	    -17.11801936	      0.03325662	     -6.29856928	     -1.52128159	     -0.00570064	     -0.33383916	     13.31612277	      6.66751196	      3.08606410	    -10.80236052	      7.53027102	     -8.93417396	      1.85171535	     40.17707032	     -7.42999685	    -12.00561702	    -50.01838644	     -3.37897543	     -6.47270948	     20.57295049	     22.61337917	     -0.19137808	     -7.00487291
      4.54500000	    -17.09952176	      0.22596664	     -6.57535909	     -1.51510284	     -0.00590639	     -0.33362778	     12.61067741	      6.44095774	      3.26112174	    -10.30652856	      7.70832838	     -8.61454760	      1.99988080	     40.53433228	     -7.47365468	    -12.51175812	    -48.71308715	     -3.02741060	     -5.95957599	     20.68942664	     22.52359418	     -0.23921231	     -6.66646769
      4.55000000	    -17.08406778	      0.40760115	     -6.84348453	     -1.50895191	     -0.00620998	     -0.33348442	     11.92273794	      6.21678030	      3.42569698	     -9.83030477	      7.89967278	     -8.31177572	      2.14036259	     40.87738659	     -7.52102682	    -13.01789672	    -47.36644097	     -2.69210437	     -5.40766505	     20.80677306	     22.42673310	     -0.26988507	     -6.34295261
      4.55500000	    -17.07364558	      0.57576584	     -7.09433404	     -1.50280227	     -0.00660380	     -0.33332123	     11.25797295	      6.00482822	      3.57596454	     -9.38916934	      8.10196650	     -8.02696658	      2.26990198	     41.20091550	     -7.57645091	    -13.52334104	    -45.96706882	     -2.37433818	     -4.81603423	     20.91946047	     22.33820779	     -0.31123561	     -6.02220686
      4.56000000	    -16.98206180	      0.75553663	     -7.36798428	     -1.49667365	     -0.00695752	     -0.33320118	     10.52517046	      5.76330230	      3.76135360	     -8.96925566	      8.29886722	     -7.73740365	      2.50053597	     41.39287291	     -7.61266811	    -14.06406089	    -44.48820188	     -2.09971459	     -4.28350317	     21.03933976	     22.15379260	     -0.35449593	     -5.71899681
      4.56500000	    -17.04246228	      0.89806044	     -7.59953294	     -1.49058822	     -0.00757020	     -0.33311859	      9.99927519	      5.58011896	      3.86419841	     -8.63700826	      8.48913857	     -7.49680946	      2.58976558	     41.75127632	     -7.67423284	    -14.52481194	    -42.99788071	     -1.81259913	     -3.59541465	     21.12835509	     22.12209361	     -0.36589576	     -5.46590506
      4.57000000	    -17.00078525	      1.05105630	     -7.87376940	     -1.48449528	     -0.00816239	     -0.33297892	      9.36879174	      5.37561683	      4.01311802	     -8.30786390	      8.74336814	     -7.21158821	      2.71550263	     41.96388094	     -7.75800225	    -15.11174145	    -41.47057160	     -1.56080760	     -2.96045708	     21.18960896	     21.98379042	     -0.38368757	     -5.11995860
      4.57500000	    -17.00035660	      1.20338149	     -8.10605755	     -1.47840699	     -0.00884634	     -0.33291855	      8.81696504	      5.16953592	      4.11064973	     -8.03956137	      8.98046317	     -6.98267133	      2.81406137	     42.20006368	     -7.80265838	    -15.64529750	    -39.89026148	     -1.34221376	     -2.30022242	     21.22011052	     21.88575534	     -0.41144737	     -4.83781786
      4.58000000	    -16.99654879	      1.35374370	     -8.33462564	     -1.47232706	     -0.00958472	     -0.33288237	      8.28739408	      4.96255645	      4.20579324	     -7.81746192	      9.23188834	     -6.75869379	      2.90545164	     42.40892868	     -7.84036148	    -16.19511137	    -38.27334916	     -1.15932276	     -1.65582332	     21.21385679	     21.78045600	     -0.43897369	     -4.56350912
      4.58500000	    -16.99493044	      1.50362203	     -8.55072927	     -1.46624298	     -0.01038178	     -0.33286605	      7.78338334	      4.75389131	      4.28838763	     -7.63766173	      9.49819285	     -6.54741030	      2.98617603	     42.59763480	     -7.86474293	    -16.75426794	    -36.62329807	     -1.01013059	     -1.01726036	     21.17421491	     21.67894441	     -0.47386178	     -4.29663958
      4.59000000	    -17.00038667	      1.64707532	     -8.76358937	     -1.46016197	     -0.01123526	     -0.33285218	      7.31482891	      4.55423232	      4.35555867	     -7.51033699	      9.76846295	     -6.34887940	      3.05005359	     42.77323429	     -7.88990574	    -17.33467254	    -34.95011454	     -0.89960802	     -0.39359591	     21.11033466	     21.58341481	     -0.50725086	     -4.04032301
      4.59500000	    -17.01026486	      1.78993525	     -8.96701080	     -1.45407156	     -0.01213662	     -0.33286283	      6.87321610	      4.35330415	      4.41325081	     -7.42482063	     10.04548157	     -6.15969780	      3.09789581	     42.93337050	     -7.90235405	    -17.93240521	    -33.25704207	     -0.82770738	      0.21465985	     21.03009013	     21.49271708	     -0.54411340	     -3.79617699
